<svg xmlns="http://www.w3.org/2000/svg" xmlns:xlink="http://www.w3.org/1999/xlink" width="154.68" height="161.64" viewBox="0 0 154.68 161.64">
  <defs>
    <style>
      .cls-1 {
        fill: none;
      }

      .cls-2 {
        fill: #07171b;
      }

      .cls-3 {
        fill: #62a5a2;
      }

      .cls-4 {
        fill: #ea692b;
      }

      .cls-5 {
        fill: #f3dbbd;
      }

      .cls-6 {
        fill: #f6f3cf;
      }

      .cls-7 {
        fill: #e96332;
      }

      .cls-8 {
        fill: #a84720;
      }

      .cls-9 {
        fill: #3b3e43;
      }

      .cls-10 {
        fill: #fff;
      }

      .cls-11 {
        clip-path: url(#clip-path);
      }

      .cls-12 {
        fill: #3d342f;
      }
    </style>
    <clipPath id="clip-path">
      <path class="cls-1" d="M115.56,92.32A37.74,37.74,0,0,0,77.89,54.58h-.25A37.74,37.74,0,0,0,40,92.32c0,.49-9.06,10.72-2.87,22.93,3.43,6.76,22.33,14,40.34,14.18,19.1.21,37.36-7,41-14.18C124.63,103,115.56,92.81,115.56,92.32Z"/>
    </clipPath>
  </defs>
  <g id="Слой_2" data-name="Слой 2">
    <g id="background">
      <path class="cls-2" d="M15,0h0l0,0Z"/>
      <path class="cls-3" d="M154.68,84.3A77.34,77.34,0,1,1,77.34,7,77.34,77.34,0,0,1,154.68,84.3Z"/>
    </g>
    <g id="object">
      <g>
        <g>
          <path class="cls-4" d="M91.68,49.7c-4.33,6.09-2.51,14.81,4,19.47s15.38,3.49,19.71-2.6,5.13-24.13,2.42-26.78S96,43.61,91.68,49.7Z"/>
          <path class="cls-5" d="M94.94,54c-2.42,4.06-.84,9.46,3.53,12.06s9.87,1.44,12.3-2.62,5.71-17.92,2.6-19.5S97.36,50,94.94,54Z"/>
        </g>
        <g>
          <path class="cls-4" d="M65.18,49.7c4.32,6.09,2.51,14.81-4.05,19.47s-15.39,3.49-19.71-2.6S36.29,42.44,39,39.79,60.85,43.61,65.18,49.7Z"/>
          <path class="cls-5" d="M61.91,54c2.42,4.06.84,9.46-3.53,12.06s-9.87,1.44-12.29-2.62S40.37,45.54,43.48,44,59.49,50,61.91,54Z"/>
        </g>
        <path class="cls-6" d="M127,107.28a11.1,11.1,0,0,0-2.3-1.24l.68.4A15.27,15.27,0,0,1,127,107.28Z"/>
        <path class="cls-6" d="M127,107.28a15.27,15.27,0,0,0-1.62-.84A15.85,15.85,0,0,0,127,107.28Z"/>
        <path class="cls-6" d="M30.71,106a11.1,11.1,0,0,0-2.3,1.24,14.18,14.18,0,0,1,1.61-.84C30.24,106.32,30.47,106.19,30.71,106Z"/>
        <path class="cls-6" d="M28.41,107.28a15.24,15.24,0,0,0,1.61-.84A14.18,14.18,0,0,0,28.41,107.28Z"/>
        <path class="cls-1" d="M50.65,106.11A50.15,50.15,0,0,1,60,110.28a.78.78,0,0,0,0-.14A36.09,36.09,0,0,0,50.65,106.11Z"/>
        <path class="cls-7" d="M77.66,54.58Z"/>
        <path class="cls-8" d="M77.74,54.58h0Z"/>
        <path class="cls-4" d="M115.56,92.32A37.74,37.74,0,0,0,77.89,54.58h-.25A37.74,37.74,0,0,0,40,92.32c0,.49-9.06,10.72-2.87,22.93,3.43,6.76,22.33,14,40.34,14.18,19.1.21,37.36-7,41-14.18C124.63,103,115.56,92.81,115.56,92.32Z"/>
        <g>
          <path class="cls-9" d="M87.21,86.33A5.79,5.79,0,1,0,93,80.54,5.78,5.78,0,0,0,87.21,86.33Z"/>
          <path class="cls-10" d="M91.69,81.78a3,3,0,1,0,3-3A3,3,0,0,0,91.69,81.78Z"/>
        </g>
        <g>
          <path class="cls-9" d="M70.09,86.33a5.79,5.79,0,1,1-5.78-5.79A5.78,5.78,0,0,1,70.09,86.33Z"/>
          <path class="cls-10" d="M65.61,81.78a3,3,0,1,1-3-3A3,3,0,0,1,65.61,81.78Z"/>
        </g>
        <g class="cls-11">
          <path class="cls-5" d="M105.57,118.36c0,8.79-12.59,15.92-28.13,15.92s-28.13-7.13-28.13-15.92,12.6-15.92,28.13-15.92S105.57,109.57,105.57,118.36Z"/>
        </g>
        <g>
          <path class="cls-9" d="M85.62,102.5c0,2.93-3.42,6.58-7.64,6.58s-7.65-3.65-7.65-6.58,3.42-5.31,7.65-5.31S85.62,99.57,85.62,102.5Z"/>
          <g>
            <path class="cls-9" d="M70,118.05c-2.1,0-4.42-1-6.93-3.09a.78.78,0,0,1-.12-1.1.8.8,0,0,1,1.11-.11c2.94,2.41,5.47,3.23,7.52,2.45,4.09-1.56,5.31-8.88,5.32-9a.78.78,0,1,1,1.55.24c0,.34-1.38,8.3-6.31,10.17A6,6,0,0,1,70,118.05Z"/>
            <path class="cls-9" d="M84.56,118.74a5.12,5.12,0,0,1-1.86-.35c-4.69-1.88-5.57-10.58-5.6-11a.78.78,0,0,1,.7-.85.79.79,0,0,1,.86.7c.22,2.26,1.47,8.38,4.63,9.64,1.73.69,3.93-.11,6.55-2.38a.78.78,0,1,1,1,1.18C88.56,117.73,86.45,118.74,84.56,118.74Z"/>
          </g>
          <path class="cls-10" d="M83,100.91c-.18.71-1.23,1-2.33.76s-1.86-1.07-1.69-1.78,1.22-1,2.33-.76S83.14,100.21,83,100.91Z"/>
        </g>
        <g>
          <path class="cls-12" d="M58.59,108.68a.82.82,0,0,1-.59-.24c-.12-.11-9.24-8.69-35-12.63a.85.85,0,0,1,.26-1.67c26.43,4,35.55,12.73,35.93,13.09a.85.85,0,0,1,0,1.2A.82.82,0,0,1,58.59,108.68Z"/>
          <path class="cls-12" d="M57.06,112.08a.87.87,0,0,1-.41-.11c-.14-.07-11.13-6.08-37.06-3.38a.84.84,0,0,1-.18-1.68C46,104.14,57,110.24,57.48,110.5a.84.84,0,0,1-.42,1.58Z"/>
          <path class="cls-12" d="M19.22,121.3a.85.85,0,0,1-.8-.57.84.84,0,0,1,.53-1.07c25.28-8.66,37.4-5.19,37.9-5a.84.84,0,1,1-.48,1.62h0c-.12,0-12.18-3.44-36.88,5A.84.84,0,0,1,19.22,121.3Z"/>
        </g>
        <g>
          <path class="cls-12" d="M96.09,110a.82.82,0,0,1-.6-.25.84.84,0,0,1,0-1.2c.37-.37,9.5-9.06,35.92-13.09a.85.85,0,1,1,.26,1.67c-25.89,3.95-34.91,12.54-35,12.63A.84.84,0,0,1,96.09,110Z"/>
          <path class="cls-12" d="M97.61,113.39a.85.85,0,0,1-.42-1.58c.46-.26,11.48-6.36,38.07-3.59a.84.84,0,0,1,.76.92.84.84,0,0,1-.93.76c-26-2.7-36.95,3.32-37.06,3.38A.91.91,0,0,1,97.61,113.39Z"/>
          <path class="cls-12" d="M135.46,122.61a.9.9,0,0,1-.28,0c-24.69-8.46-36.75-5.06-36.87-5a.85.85,0,0,1-.49-1.62c.51-.15,12.62-3.62,37.91,5a.84.84,0,0,1-.27,1.64Z"/>
        </g>
      </g>
    </g>
  </g>
</svg>
