<svg xmlns="http://www.w3.org/2000/svg" width="154.68" height="154.68" viewBox="0 0 154.68 154.68">
  <defs>
    <style>
      .cls-1 {
        fill: #185787;
      }

      .cls-2 {
        fill: #f7a99b;
      }

      .cls-3 {
        fill: #d69488;
      }

      .cls-4 {
        fill: #3d342f;
      }

      .cls-5 {
        fill: #fff;
      }
    </style>
  </defs>
  <g id="Слой_2" data-name="Слой 2">
    <g id="background">
      <path class="cls-1" d="M154.68,77.34A77.34,77.34,0,1,1,77.34,0,77.34,77.34,0,0,1,154.68,77.34Z"/>
    </g>
    <g id="object">
      <g>
        <path class="cls-2" d="M123.41,81.55c0,22.71-20.58,41.12-46,41.12s-46-18.41-46-41.12,20.58-41.12,46-41.12S123.41,58.84,123.41,81.55Z"/>
        <path class="cls-3" d="M101.64,99.13c0,8.55-10.61,15.48-23.7,15.48s-23.71-6.93-23.71-15.48S64.84,83.65,77.94,83.65,101.64,90.58,101.64,99.13Z"/>
        <g>
          <path class="cls-3" d="M85.71,72.2a8.51,8.51,0,1,0,8.5-8.51A8.51,8.51,0,0,0,85.71,72.2Z"/>
          <g>
            <path class="cls-4" d="M88.81,72.27a5.06,5.06,0,1,0,5.06-5.06A5.07,5.07,0,0,0,88.81,72.27Z"/>
            <path class="cls-5" d="M93.15,68.09a2.41,2.41,0,1,0,2.41-2.41A2.41,2.41,0,0,0,93.15,68.09Z"/>
          </g>
        </g>
        <g>
          <path class="cls-3" d="M72.22,72.2a8.51,8.51,0,1,1-8.5-8.51A8.5,8.5,0,0,1,72.22,72.2Z"/>
          <g>
            <path class="cls-4" d="M69.12,72.27a5.06,5.06,0,1,1-5.06-5.06A5.06,5.06,0,0,1,69.12,72.27Z"/>
            <path class="cls-5" d="M64.78,68.09a2.41,2.41,0,1,1-2.41-2.41A2.4,2.4,0,0,1,64.78,68.09Z"/>
          </g>
        </g>
        <path class="cls-4" d="M73.82,99.45a4.28,4.28,0,1,1-4.27-4.28A4.27,4.27,0,0,1,73.82,99.45Z"/>
        <path class="cls-4" d="M91.45,99.66a4.28,4.28,0,1,1-4.27-4.27A4.28,4.28,0,0,1,91.45,99.66Z"/>
        <g>
          <path class="cls-2" d="M123,59.54a14.22,14.22,0,1,1-19-21.15c6.06-5.44,27.75-7.16,28.72-6.08S129.08,54.09,123,59.54Z"/>
          <path class="cls-3" d="M120.92,55.57A9.86,9.86,0,1,1,107.75,40.9c4.21-3.77,19.25-5,19.92-4.22S125.13,51.79,120.92,55.57Z"/>
        </g>
        <g>
          <path class="cls-2" d="M31.66,59.54a14.48,14.48,0,0,0,20.46-.72c5.25-5.84,4.58-15-1.48-20.43S22.9,31.23,21.93,32.31,25.6,54.09,31.66,59.54Z"/>
          <path class="cls-3" d="M33.75,55.57A9.86,9.86,0,1,0,46.92,40.9c-4.2-3.77-19.25-5-19.92-4.22S29.55,51.79,33.75,55.57Z"/>
        </g>
      </g>
    </g>
  </g>
</svg>
