<?xml version="1.0" standalone="no"?>
<!DOCTYPE svg PUBLIC "-//W3C//DTD SVG 20010904//EN"
 "http://www.w3.org/TR/2001/REC-SVG-20010904/DTD/svg10.dtd">
<svg version="1.0" xmlns="http://www.w3.org/2000/svg"
 width="136.000000pt" height="117.000000pt" viewBox="0 0 136.000000 117.000000"
 preserveAspectRatio="xMidYMid meet">

<g transform="translate(0.000000,117.000000) scale(0.100000,-0.100000)"
fill="#000000" stroke="none">
<path d="M340 799 c-9 -15 -8 -24 1 -35 18 -22 53 -13 57 15 6 40 -39 56 -58
20z"/>
<path d="M842 811 c-8 -4 -12 -19 -10 -32 4 -33 53 -40 63 -9 11 36 -22 61
-53 41z"/>
<path d="M130 625 c0 -47 40 -198 63 -240 50 -89 181 -143 369 -152 241 -12
422 48 478 158 26 50 60 180 60 227 0 33 -1 34 -32 28 -54 -11 -71 -29 -136
-146 -46 -83 -60 -118 -56 -136 7 -26 -2 -74 -14 -74 -4 0 -15 14 -24 30 -21
38 -45 31 -54 -16 -8 -41 -18 -43 -33 -6 l-11 27 -126 -3 c-121 -3 -125 -4
-136 -28 -15 -33 -25 -30 -32 10 -5 28 -21 46 -41 46 -1 0 -8 -13 -15 -30 -7
-16 -16 -30 -21 -30 -13 0 -21 38 -14 69 5 23 -6 50 -50 132 -67 123 -89 148
-138 156 -35 5 -37 4 -37 -22z"/>
</g>
</svg>
